<svg width="81" height="81" viewBox="0 0 81 81" fill="none" xmlns="http://www.w3.org/2000/svg">
<circle cx="40.173" cy="40.267" r="40" fill="#FACC15"/>
<path fill-rule="evenodd" clip-rule="evenodd" d="M40.173 74.879C59.2887 74.879 74.785 59.3826 74.785 40.267C74.785 21.1513 59.2887 5.65496 40.173 5.65496C21.0574 5.65496 5.56104 21.1513 5.56104 40.267C5.56104 59.3826 21.0574 74.879 40.173 74.879ZM41.7144 26.9351C43.6172 24.6661 44.4485 21.8305 43.7193 19.1089C42.395 14.1665 36.4254 11.4718 30.386 13.0901C25.381 14.4312 21.8986 18.3134 21.6061 22.4169C19.7801 21.5624 17.4877 21.3419 15.1817 21.9598C10.6521 23.1735 7.78527 27.1624 8.77851 30.8692C9.27416 32.719 10.6374 34.149 12.4419 34.9667C10.6999 35.9527 9.72707 37.7488 10.1804 39.4408L16.2987 62.2743C16.8587 64.3644 19.3831 65.504 21.9372 64.8196L49.8392 57.3433C52.3933 56.6589 54.0097 54.4099 53.4496 52.3197L47.3314 29.4862C46.7729 27.4019 44.2612 26.2629 41.7144 26.9351ZM27.4977 30.7444C26.6543 30.4372 25.8702 30.0356 25.1666 29.5494C24.9729 30.2711 24.6507 30.9704 24.2171 31.6235L27.4977 30.7444ZM33.9828 26.5136C37.0026 25.7045 38.9138 23.0452 38.2516 20.574C37.5894 18.1028 34.6047 16.7555 31.5849 17.5646C28.5652 18.3737 26.654 21.033 27.3161 23.5042C27.9783 25.9754 30.9631 27.3228 33.9828 26.5136ZM17.5795 30.9088C19.0894 30.5043 20.045 29.1747 19.7139 27.9391C19.3829 26.7035 17.8905 26.0298 16.3806 26.4343C14.8707 26.8389 13.9151 28.1685 14.2462 29.4041C14.5773 30.6397 16.0697 31.3134 17.5795 30.9088ZM51.8169 33.8425L60.8166 25.0158C62.5676 23.3077 65.7011 23.7409 66.24 25.7519L71.69 46.0915C72.2309 48.1104 69.722 50.047 67.3612 49.4407L55.156 46.3043L51.8169 33.8425ZM62.9904 26.8648C63.2572 26.7934 63.5313 26.9517 63.6028 27.2184L67.1996 40.6419C67.2711 40.9086 67.1128 41.1828 66.8461 41.2543C66.5794 41.3258 66.3052 41.1675 66.2337 40.9007L62.6369 27.4772C62.5654 27.2105 62.7237 26.9363 62.9904 26.8648Z" fill="black"/>
</svg>
