<svg width="54" height="54" viewBox="0 0 54 54" fill="none" xmlns="http://www.w3.org/2000/svg">
<path d="M51.8972 27C51.8972 40.8071 40.7043 52 26.8972 52C13.0901 52 1.89722 40.8071 1.89722 27C1.89722 13.1929 13.0901 2 26.8972 2C40.7043 2 51.8972 13.1929 51.8972 27Z" stroke="#FACC15" stroke-width="2.5" stroke-linecap="round" stroke-linejoin="round"/>
<path d="M26.1863 15.0277C26.244 14.8868 26.3423 14.7663 26.4688 14.6815C26.5952 14.5967 26.744 14.5515 26.8962 14.5515C27.0484 14.5515 27.1972 14.5967 27.3236 14.6815C27.4501 14.7663 27.5484 14.8868 27.6061 15.0277L30.5073 22.0056C30.5617 22.1362 30.6509 22.2492 30.7653 22.3323C30.8798 22.4154 31.0149 22.4654 31.1559 22.4766L38.6894 23.0801C39.3707 23.1347 39.6465 23.9852 39.1277 24.429L33.3881 29.3467C33.2808 29.4384 33.2009 29.5579 33.1571 29.692C33.1133 29.8262 33.1072 29.9698 33.1396 30.1071L34.894 37.4591C34.9292 37.6066 34.92 37.7613 34.8674 37.9035C34.8148 38.0458 34.7213 38.1693 34.5986 38.2584C34.4759 38.3475 34.3295 38.3982 34.1779 38.4042C34.0264 38.4102 33.8765 38.3711 33.7471 38.2919L27.2962 34.3531C27.1757 34.2797 27.0373 34.2408 26.8962 34.2408C26.7551 34.2408 26.6167 34.2797 26.4962 34.3531L20.0453 38.2933C19.9159 38.3725 19.766 38.4115 19.6145 38.4056C19.4629 38.3996 19.3166 38.3489 19.1938 38.2597C19.0711 38.1706 18.9776 38.0471 18.925 37.9049C18.8724 37.7626 18.8632 37.608 18.8984 37.4605L20.6528 30.1071C20.6853 29.9698 20.6794 29.8261 20.6355 29.692C20.5917 29.5578 20.5117 29.4383 20.4043 29.3467L14.6647 24.429C14.5498 24.3301 14.4666 24.1995 14.4257 24.0536C14.3848 23.9076 14.388 23.7528 14.4348 23.6086C14.4817 23.4645 14.5701 23.3374 14.689 23.2433C14.8079 23.1493 14.9519 23.0925 15.103 23.0801L22.6366 22.4766C22.7775 22.4654 22.9126 22.4154 23.0271 22.3323C23.1415 22.2492 23.2307 22.1362 23.2851 22.0056L26.1863 15.0277Z" stroke="#FACC15" stroke-width="2.5" stroke-linecap="round" stroke-linejoin="round"/>
</svg>
