<svg width="54" height="53" viewBox="0 0 54 53" fill="none" xmlns="http://www.w3.org/2000/svg">
<path d="M52.1187 26.6643C52.1187 40.4714 40.9258 51.6643 27.1187 51.6643C13.3115 51.6643 2.11865 40.4714 2.11865 26.6643C2.11865 12.8572 13.3115 1.66431 27.1187 1.66431C40.9258 1.66431 52.1187 12.8572 52.1187 26.6643Z" stroke="#FACC15" stroke-width="2.5" stroke-linecap="round"/>
<path d="M21.8652 14.4061C21.5428 14.0837 21.0201 14.0837 20.6977 14.4061C20.3753 14.7285 20.3753 15.2512 20.6977 15.5735L31.7885 26.6643L20.6977 37.7551C20.3753 38.0775 20.3753 38.6001 20.6977 38.9225C21.0201 39.2449 21.5428 39.2449 21.8652 38.9225L33.5397 27.248C33.862 26.9256 33.862 26.403 33.5397 26.0806L21.8652 14.4061Z" stroke="#FACC15" stroke-width="2.5" stroke-linecap="round"/>
</svg>
