<svg width="54" height="54" viewBox="0 0 54 54" fill="none" xmlns="http://www.w3.org/2000/svg">
<path d="M52.146 27C52.146 40.8071 40.9531 52 27.146 52C13.3389 52 2.146 40.8071 2.146 27C2.146 13.1929 13.3389 2 27.146 2C40.9531 2 52.146 13.1929 52.146 27Z" stroke="#FACC15" stroke-width="2.5" stroke-linecap="round" stroke-linejoin="round"/>
<path d="M14.646 17.9091C14.646 17.0049 15.0052 16.1378 15.6445 15.4985C16.2838 14.8592 17.1509 14.5 18.0551 14.5H21.4642C22.3683 14.5 23.2354 14.8592 23.8748 15.4985C24.5141 16.1378 24.8733 17.0049 24.8733 17.9091V21.3182C24.8733 22.2223 24.5141 23.0894 23.8748 23.7288C23.2354 24.3681 22.3683 24.7273 21.4642 24.7273H18.0551C17.1509 24.7273 16.2838 24.3681 15.6445 23.7288C15.0052 23.0894 14.646 22.2223 14.646 21.3182V17.9091ZM14.646 32.6818C14.646 31.7777 15.0052 30.9106 15.6445 30.2712C16.2838 29.6319 17.1509 29.2727 18.0551 29.2727H21.4642C22.3683 29.2727 23.2354 29.6319 23.8748 30.2712C24.5141 30.9106 24.8733 31.7777 24.8733 32.6818V36.0909C24.8733 36.9951 24.5141 37.8622 23.8748 38.5015C23.2354 39.1408 22.3683 39.5 21.4642 39.5H18.0551C17.1509 39.5 16.2838 39.1408 15.6445 38.5015C15.0052 37.8622 14.646 36.9951 14.646 36.0909V32.6818ZM29.4187 17.9091C29.4187 17.0049 29.7779 16.1378 30.4172 15.4985C31.0566 14.8592 31.9237 14.5 32.8278 14.5H36.2369C37.1411 14.5 38.0082 14.8592 38.6475 15.4985C39.2868 16.1378 39.646 17.0049 39.646 17.9091V21.3182C39.646 22.2223 39.2868 23.0894 38.6475 23.7288C38.0082 24.3681 37.1411 24.7273 36.2369 24.7273H32.8278C31.9237 24.7273 31.0566 24.3681 30.4172 23.7288C29.7779 23.0894 29.4187 22.2223 29.4187 21.3182V17.9091ZM29.4187 32.6818C29.4187 31.7777 29.7779 30.9106 30.4172 30.2712C31.0566 29.6319 31.9237 29.2727 32.8278 29.2727H36.2369C37.1411 29.2727 38.0082 29.6319 38.6475 30.2712C39.2868 30.9106 39.646 31.7777 39.646 32.6818V36.0909C39.646 36.9951 39.2868 37.8622 38.6475 38.5015C38.0082 39.1408 37.1411 39.5 36.2369 39.5H32.8278C31.9237 39.5 31.0566 39.1408 30.4172 38.5015C29.7779 37.8622 29.4187 36.9951 29.4187 36.0909V32.6818Z" stroke="#FACC15" stroke-width="2.5" stroke-linecap="round" stroke-linejoin="round"/>
</svg>
