<svg width="21" height="21" viewBox="0 0 21 21" fill="none" xmlns="http://www.w3.org/2000/svg">
<path fill-rule="evenodd" clip-rule="evenodd" d="M10.1113 20.3138C15.6342 20.3138 20.1113 15.8367 20.1113 10.3138C20.1113 4.79099 15.6342 0.313843 10.1113 0.313843C4.5885 0.313843 0.111328 4.79099 0.111328 10.3138C0.111328 15.8367 4.5885 20.3138 10.1113 20.3138ZM5.58099 5.78351C5.72168 5.64285 5.91241 5.56384 6.11133 5.56384H7.61133C7.81024 5.56384 8.00098 5.64285 8.14166 5.78351C8.28229 5.92416 8.36133 6.11493 8.36133 6.31384V7.81384C8.36133 8.01276 8.28229 8.20352 8.14166 8.34418C8.00098 8.48483 7.81024 8.56384 7.61133 8.56384H6.11133C5.91241 8.56384 5.72168 8.48483 5.58099 8.34418C5.44037 8.20352 5.36133 8.01276 5.36133 7.81384V6.31384C5.36133 6.11493 5.44037 5.92416 5.58099 5.78351ZM6.11133 4.06384C5.51459 4.06384 4.94232 4.3009 4.52032 4.72284C4.09839 5.14481 3.86133 5.7171 3.86133 6.31384V7.81384C3.86133 8.41058 4.09839 8.98288 4.52032 9.40485C4.94232 9.82678 5.51459 10.0638 6.11133 10.0638H7.61133C8.20807 10.0638 8.78033 9.82678 9.20233 9.40485C9.62427 8.98288 9.86133 8.41058 9.86133 7.81384V6.31384C9.86133 5.7171 9.62427 5.14481 9.20233 4.72284C8.78033 4.3009 8.20807 4.06384 7.61133 4.06384H6.11133ZM12.081 5.78351C12.2217 5.64285 12.4124 5.56384 12.6113 5.56384H14.1113C14.3102 5.56384 14.501 5.64285 14.6417 5.78351C14.7823 5.92416 14.8613 6.11493 14.8613 6.31384V7.81384C14.8613 8.01276 14.7823 8.20352 14.6417 8.34418C14.501 8.48483 14.3102 8.56384 14.1113 8.56384H12.6113C12.4124 8.56384 12.2217 8.48483 12.081 8.34418C11.9404 8.20352 11.8613 8.01276 11.8613 7.81384V6.31384C11.8613 6.11493 11.9404 5.92416 12.081 5.78351ZM12.6113 4.06384C12.0146 4.06384 11.4423 4.3009 11.0203 4.72284C10.5984 5.14481 10.3613 5.7171 10.3613 6.31384V7.81384C10.3613 8.41058 10.5984 8.98288 11.0203 9.40485C11.4423 9.82678 12.0146 10.0638 12.6113 10.0638H14.1113C14.7081 10.0638 15.2803 9.82678 15.7023 9.40485C16.1243 8.98288 16.3613 8.41058 16.3613 7.81384V6.31384C16.3613 5.7171 16.1243 5.14481 15.7023 4.72284C15.2803 4.3009 14.7081 4.06384 14.1113 4.06384H12.6113ZM5.58099 12.2835C5.72168 12.1429 5.91241 12.0638 6.11133 12.0638H7.61133C7.81024 12.0638 8.00098 12.1429 8.14166 12.2835C8.28229 12.4242 8.36133 12.6149 8.36133 12.8138V14.3138C8.36133 14.5128 8.28229 14.7035 8.14166 14.8442C8.00098 14.9848 7.81024 15.0638 7.61133 15.0638H6.11133C5.91241 15.0638 5.72168 14.9848 5.58099 14.8442C5.44037 14.7035 5.36133 14.5128 5.36133 14.3138V12.8138C5.36133 12.6149 5.44037 12.4242 5.58099 12.2835ZM6.11133 10.5638C5.51459 10.5638 4.94232 10.8009 4.52032 11.2228C4.09839 11.6448 3.86133 12.2171 3.86133 12.8138V14.3138C3.86133 14.9106 4.09839 15.4828 4.52032 15.9048C4.94232 16.3268 5.51459 16.5638 6.11133 16.5638H7.61133C8.20807 16.5638 8.78033 16.3268 9.20233 15.9048C9.62427 15.4828 9.86133 14.9106 9.86133 14.3138V12.8138C9.86133 12.2171 9.62427 11.6448 9.20233 11.2228C8.78033 10.8009 8.20807 10.5638 7.61133 10.5638H6.11133ZM12.081 12.2835C12.2217 12.1429 12.4124 12.0638 12.6113 12.0638H14.1113C14.3102 12.0638 14.501 12.1429 14.6417 12.2835C14.7823 12.4242 14.8613 12.6149 14.8613 12.8138V14.3138C14.8613 14.5128 14.7823 14.7035 14.6417 14.8442C14.501 14.9848 14.3102 15.0638 14.1113 15.0638H12.6113C12.4124 15.0638 12.2217 14.9848 12.081 14.8442C11.9404 14.7035 11.8613 14.5128 11.8613 14.3138V12.8138C11.8613 12.6149 11.9404 12.4242 12.081 12.2835ZM12.6113 10.5638C12.0146 10.5638 11.4423 10.8009 11.0203 11.2228C10.5984 11.6448 10.3613 12.2171 10.3613 12.8138V14.3138C10.3613 14.9106 10.5984 15.4828 11.0203 15.9048C11.4423 16.3268 12.0146 16.5638 12.6113 16.5638H14.1113C14.7081 16.5638 15.2803 16.3268 15.7023 15.9048C16.1243 15.4828 16.3613 14.9106 16.3613 14.3138V12.8138C16.3613 12.2171 16.1243 11.6448 15.7023 11.2228C15.2803 10.8009 14.7081 10.5638 14.1113 10.5638H12.6113Z" fill="#FACC15"/>
</svg>
