<svg width="51" height="50" viewBox="0 0 51 50" fill="none" xmlns="http://www.w3.org/2000/svg">
<path fill-rule="evenodd" clip-rule="evenodd" d="M25.1665 50C38.9736 50 50.1665 38.8071 50.1665 25C50.1665 11.1929 38.9736 0 25.1665 0C11.3594 0 0.166504 11.1929 0.166504 25C0.166504 38.8071 11.3594 50 25.1665 50ZM40.1665 14.6875V29.6875C40.1665 31.7586 38.4876 33.4375 36.4165 33.4375H30.7915L25.1665 39.0625L19.5415 33.4375H13.9165C11.8454 33.4375 10.1665 31.7586 10.1665 29.6875V14.6875C10.1665 12.6164 11.8454 10.9375 13.9165 10.9375H36.4165C38.4876 10.9375 40.1665 12.6164 40.1665 14.6875ZM17.6665 16.5625C16.631 16.5625 15.7915 17.402 15.7915 18.4375C15.7915 19.473 16.631 20.3125 17.6665 20.3125H32.6665C33.7021 20.3125 34.5415 19.473 34.5415 18.4375C34.5415 17.402 33.7021 16.5625 32.6665 16.5625H17.6665ZM15.7915 25.9375C15.7915 24.9019 16.631 24.0625 17.6665 24.0625H23.2915C24.3271 24.0625 25.1665 24.9019 25.1665 25.9375C25.1665 26.9731 24.3271 27.8125 23.2915 27.8125H17.6665C16.631 27.8125 15.7915 26.9731 15.7915 25.9375Z" fill="#FACC15"/>
</svg>
