<svg width="16" height="16" viewBox="0 0 16 16" fill="none" xmlns="http://www.w3.org/2000/svg">
<g clip-path="url(#clip0_172_14)">
<path d="M7.89177 10.4006L11.5355 14.0443C11.848 14.3468 12.2669 14.5144 12.7018 14.5109C13.1367 14.5073 13.5528 14.333 13.8604 14.0254C14.1679 13.7179 14.3423 13.3018 14.3458 12.8669C14.3493 12.4319 14.1818 12.0131 13.8793 11.7006L10.2061 8.02744M7.89177 10.4006L9.45177 8.50681C9.6499 8.26681 9.91427 8.11556 10.2068 8.02806C10.5505 7.92556 10.9336 7.91056 11.2961 7.94056C11.7848 7.98252 12.2759 7.89597 12.7208 7.68951C13.1656 7.48304 13.5488 7.16384 13.8322 6.76356C14.1156 6.36329 14.2894 5.89587 14.3363 5.40769C14.3833 4.9195 14.3018 4.42752 14.0999 3.98056L12.0524 6.02869C11.7098 5.94947 11.3964 5.77566 11.1478 5.52705C10.8992 5.27843 10.7254 4.965 10.6461 4.62244L12.6936 2.57494C12.2467 2.37304 11.7547 2.29153 11.2665 2.33849C10.7783 2.38545 10.3109 2.55926 9.91064 2.84265C9.51037 3.12605 9.19117 3.50919 8.9847 3.95406C8.77823 4.39892 8.69169 4.89004 8.73365 5.37869C8.79052 6.05119 8.68927 6.79369 8.16865 7.22244L8.1049 7.27556M7.89177 10.4006L4.9824 13.9337C4.84139 14.1056 4.66596 14.246 4.46739 14.346C4.26883 14.446 4.05153 14.5033 3.82948 14.5142C3.60743 14.5251 3.38555 14.4895 3.17813 14.4095C2.9707 14.3295 2.78233 14.2069 2.62512 14.0497C2.46792 13.8925 2.34538 13.7041 2.26537 13.4967C2.18537 13.2893 2.14969 13.0674 2.16062 12.8454C2.17155 12.6233 2.22885 12.406 2.32883 12.2074C2.42881 12.0089 2.56927 11.8334 2.74115 11.6924L7.01427 8.17369L4.4474 5.60681H3.56677L2.16052 3.26306L3.09802 2.32556L5.44177 3.73181V4.61244L8.10427 7.27494L7.01365 8.17306M12.2386 12.4037L10.598 10.7631M3.79615 12.8724H3.80115V12.8774H3.79615V12.8724Z" stroke="#D61A1F" stroke-linecap="round" stroke-linejoin="round"/>
</g>
<defs>
<clipPath id="clip0_172_14">
<rect width="15" height="15" fill="white" transform="translate(0.754395 0.919312)"/>
</clipPath>
</defs>
</svg>
