<svg width="53" height="54" viewBox="0 0 53 54" fill="none" xmlns="http://www.w3.org/2000/svg">
<path d="M31.4561 25.077L37.5074 19.0257C37.6419 18.8914 37.8131 18.7999 37.9995 18.7629C38.186 18.7259 38.3792 18.7449 38.5548 18.8176C38.7303 18.8903 38.8805 19.0134 38.9861 19.1714C39.0918 19.3294 39.1483 19.5151 39.1484 19.7052V34.2949C39.1483 34.485 39.0918 34.6707 38.9861 34.8287C38.8805 34.9866 38.7303 35.1097 38.5548 35.1825C38.3792 35.2552 38.186 35.2742 37.9995 35.2372C37.8131 35.2001 37.6419 35.1087 37.5074 34.9744L31.4561 28.9231M51.6484 27C51.6484 40.8071 40.4556 52 26.6484 52C12.8413 52 1.64844 40.8071 1.64844 27C1.64844 13.1929 12.8413 2 26.6484 2C40.4556 2 51.6484 13.1929 51.6484 27ZM17.0331 35.6539H28.5715C29.3366 35.6539 30.0703 35.35 30.6112 34.809C31.1522 34.268 31.4561 33.5343 31.4561 32.7693V21.2308C31.4561 20.4658 31.1522 19.732 30.6112 19.1911C30.0703 18.6501 29.3366 18.3462 28.5715 18.3462H17.0331C16.268 18.3462 15.5343 18.6501 14.9933 19.1911C14.4524 19.732 14.1484 20.4658 14.1484 21.2308V32.7693C14.1484 33.5343 14.4524 34.268 14.9933 34.809C15.5343 35.35 16.268 35.6539 17.0331 35.6539Z" stroke="#FACC15" stroke-width="2.5" stroke-linecap="round"/>
</svg>
