<svg width="51" height="51" viewBox="0 0 51 51" fill="none" xmlns="http://www.w3.org/2000/svg">
<path fill-rule="evenodd" clip-rule="evenodd" d="M47.7188 25.6643C47.7188 38.0907 37.6452 48.1643 25.2188 48.1643C12.7923 48.1643 2.71875 38.0907 2.71875 25.6643C2.71875 13.2379 12.7923 3.16431 25.2188 3.16431C37.6452 3.16431 47.7188 13.2379 47.7188 25.6643ZM50.2188 25.6643C50.2188 39.4714 39.0259 50.6643 25.2188 50.6643C11.4116 50.6643 0.21875 39.4714 0.21875 25.6643C0.21875 11.8572 11.4116 0.664307 25.2188 0.664307C39.0259 0.664307 50.2188 11.8572 50.2188 25.6643ZM25.2486 11.75C23.8554 11.75 22.7259 12.8795 22.7259 14.2728C22.7259 15.0312 22.5014 15.7725 22.0808 16.4034L22.0807 16.4035L18.6164 21.6H15.533C13.2884 21.6 11.4688 23.4196 11.4688 25.6643V34.1071C11.4688 36.3518 13.2884 38.1714 15.533 38.1714H18.1934L23.3365 39.4572L23.3371 39.4573C23.6589 39.5377 23.9898 39.5785 24.3223 39.5785H29.9758C31.5153 39.5785 32.9226 38.7088 33.6111 37.3318L38.536 27.4818C39.8872 24.7794 37.9221 21.6 34.9008 21.6H29.4473V15.8143C29.4473 13.5697 27.6277 11.75 25.383 11.75H25.2486ZM15.533 24.1H17.1072C17.1006 24.1519 17.0973 24.2044 17.0973 24.2571V35.6714H15.533C14.6691 35.6714 13.9688 34.9711 13.9688 34.1071V25.6643C13.9688 24.8003 14.6691 24.1 15.533 24.1ZM23.9423 37.0317L19.5973 35.9454V24.6356L24.1608 17.7903L24.1608 17.7902C24.8554 16.7485 25.2259 15.5246 25.2259 14.2728C25.2259 14.2674 25.2267 14.2653 25.2272 14.2643C25.2276 14.2632 25.2285 14.2616 25.2298 14.2599C25.2306 14.2588 25.2315 14.2578 25.2326 14.2567C25.2355 14.2537 25.2384 14.252 25.2402 14.2513C25.2412 14.2509 25.2432 14.25 25.2486 14.25H25.383C26.247 14.25 26.9473 14.9503 26.9473 15.8143V21.6H25.383C24.6927 21.6 24.133 22.1596 24.133 22.85C24.133 23.5403 24.6927 24.1 25.383 24.1H28.1973H34.9008C36.0637 24.1 36.82 25.3237 36.3 26.3638L31.375 36.2138C31.11 36.7438 30.5684 37.0785 29.9758 37.0785H24.3223C24.1947 37.0785 24.0671 37.0628 23.9423 37.0317Z" fill="#FACC15"/>
</svg>
