<svg width="51" height="51" viewBox="0 0 51 51" fill="none" xmlns="http://www.w3.org/2000/svg">
<path fill-rule="evenodd" clip-rule="evenodd" d="M25.9167 50.3138C39.7239 50.3138 50.9167 39.121 50.9167 25.3138C50.9167 11.5067 39.7239 0.313843 25.9167 0.313843C12.1096 0.313843 0.916748 11.5067 0.916748 25.3138C0.916748 39.121 12.1096 50.3138 25.9167 50.3138ZM25.9466 11.1745C24.4291 11.1745 23.1989 12.4048 23.1989 13.9223C23.1989 14.6363 22.9876 15.3342 22.5915 15.9282L19.194 21.0245H16.231C13.8622 21.0245 11.9417 22.9449 11.9417 25.3138V33.7567C11.9417 36.1256 13.8622 38.046 16.231 38.046H18.8637L23.9799 39.325L23.9806 39.3252C24.3202 39.4099 24.6693 39.4531 25.0203 39.4531H30.6738C32.2985 39.4531 33.7837 38.5352 34.5103 37.082L39.4353 27.232C40.8613 24.38 38.7874 21.0245 35.5988 21.0245H30.3703V15.4638C30.3703 13.0949 28.45 11.1745 26.081 11.1745H25.9466ZM16.231 23.9745H17.5703V35.0959H16.231C15.4914 35.0959 14.8918 34.4963 14.8918 33.7567V25.3138C14.8918 24.5741 15.4914 23.9745 16.231 23.9745ZM24.6948 36.463L20.5203 35.4193V24.3532L25.046 17.5647C25.7275 16.5425 26.1077 15.351 26.1457 14.1261C26.8553 14.1598 27.4203 14.7458 27.4203 15.4638V21.0245H26.081C25.2664 21.0245 24.606 21.6849 24.606 22.4995C24.606 23.3141 25.2664 23.9745 26.081 23.9745H28.8953H35.5988C36.5945 23.9745 37.2419 25.0223 36.7967 25.9127L31.8717 35.7627C31.6448 36.2165 31.1811 36.5031 30.6738 36.5031H25.0203C24.9111 36.5031 24.8018 36.4897 24.6948 36.463Z" fill="#F9C31A"/>
</svg>
