<svg width="51" height="51" viewBox="0 0 51 51" fill="none" xmlns="http://www.w3.org/2000/svg">
<path fill-rule="evenodd" clip-rule="evenodd" d="M25.6311 50.5314C39.4382 50.5314 50.6311 39.3385 50.6311 25.5314C50.6311 11.7243 39.4382 0.531372 25.6311 0.531372C11.824 0.531372 0.631104 11.7243 0.631104 25.5314C0.631104 39.3385 11.824 50.5314 25.6311 50.5314ZM19.0686 11.1564C17.8668 11.1564 16.7143 11.6338 15.8645 12.4835C15.0148 13.3333 14.5374 14.4859 14.5374 15.6876V35.3751C14.5374 36.5769 15.0148 37.7294 15.8645 38.5792C16.7143 39.429 17.8668 39.9064 19.0686 39.9064H27.8186C29.0204 39.9064 30.1729 39.429 31.0227 38.5792C31.8725 37.7294 32.3499 36.5769 32.3499 35.3751V29.9064C32.3499 29.216 31.7902 28.6564 31.0999 28.6564C30.4095 28.6564 29.8499 29.216 29.8499 29.9064V35.3751C29.8499 35.9138 29.6358 36.4305 29.2549 36.8114C28.874 37.1924 28.3573 37.4064 27.8186 37.4064H19.0686C18.5299 37.4064 18.0132 37.1924 17.6323 36.8114C17.2514 36.4305 17.0374 35.9138 17.0374 35.3751V15.6876C17.0374 15.1489 17.2514 14.6322 17.6323 14.2513C18.0132 13.8704 18.5299 13.6564 19.0686 13.6564H27.8186C28.3573 13.6564 28.874 13.8704 29.2549 14.2513C29.6358 14.6322 29.8499 15.1489 29.8499 15.6876V21.1564C29.8499 21.8467 30.4095 22.4064 31.0999 22.4064C31.7902 22.4064 32.3499 21.8467 32.3499 21.1564V15.6876C32.3499 14.4859 31.8725 13.3333 31.0227 12.4835C30.1729 11.6338 29.0204 11.1564 27.8186 11.1564H19.0686ZM36.3587 20.2725C35.8706 19.7843 35.0791 19.7843 34.591 20.2725C34.1028 20.7606 34.1028 21.5521 34.591 22.0403L36.8321 24.2814H21.2561C20.5657 24.2814 20.0061 24.841 20.0061 25.5314C20.0061 26.2217 20.5657 26.7814 21.2561 26.7814H36.8321L34.591 29.0225C34.1028 29.5106 34.1028 30.3021 34.591 30.7903C35.0791 31.2784 35.8706 31.2784 36.3587 30.7903L40.7337 26.4153C41.2219 25.9271 41.2219 25.1356 40.7337 24.6475L36.3587 20.2725Z" fill="#F9C31A"/>
</svg>
