<svg width="21" height="21" viewBox="0 0 21 21" fill="none" xmlns="http://www.w3.org/2000/svg">
<path fill-rule="evenodd" clip-rule="evenodd" d="M10.8784 20.1765C16.4013 20.1765 20.8784 15.6994 20.8784 10.1765C20.8784 4.65367 16.4013 0.176514 10.8784 0.176514C5.35557 0.176514 0.878418 4.65367 0.878418 10.1765C0.878418 15.6994 5.35557 20.1765 10.8784 20.1765ZM9.99975 5.93385C8.82817 4.76228 6.92867 4.76228 5.7571 5.93385C4.58553 7.10543 4.58553 9.00493 5.7571 10.1765L10.8784 15.2979L15.9997 10.1765C17.1713 9.00493 17.1713 7.10543 15.9997 5.93385C14.8282 4.76228 12.9287 4.76228 11.7571 5.93385L10.8784 6.81254L9.99975 5.93385Z" fill="#D61A1F"/>
</svg>
