<svg width="31" height="31" viewBox="0 0 31 31" fill="none" xmlns="http://www.w3.org/2000/svg">
<path fill-rule="evenodd" clip-rule="evenodd" d="M15.8845 30.3273C24.1688 30.3273 30.8845 23.6115 30.8845 15.3273C30.8845 7.043 24.1688 0.327271 15.8845 0.327271C7.60025 0.327271 0.884521 7.043 0.884521 15.3273C0.884521 23.6115 7.60025 30.3273 15.8845 30.3273ZM5.43167 8.9355C4.23269 9.32026 3.57262 10.6041 3.95737 11.8031L4.87403 14.6596L6.09624 18.4683L7.31845 22.277L8.23511 25.1336C8.61987 26.3326 9.90376 26.9926 11.1027 26.6079L13.9593 25.6912L23.481 22.6357L26.3375 21.719C27.5365 21.3343 28.1966 20.0504 27.8118 18.8514L26.8952 15.9949L25.673 12.1862L24.4508 8.37749L23.5341 5.52097C23.1493 4.322 21.8655 3.6619 20.6665 4.04666L17.81 4.96332L8.2882 8.01885L5.43167 8.9355ZM8.1427 16.4674L7.70271 15.0962L9.07384 14.6562L9.51383 16.0274L8.1427 16.4674ZM6.92049 12.6586L8.29162 12.2187L7.85163 10.8475L6.4805 11.2875L6.92049 12.6586ZM11.9514 15.2451L11.1203 12.6552L10.2892 10.0653L17.3734 7.792L18.2045 10.3819L19.0356 12.9718L11.9514 15.2451ZM20.2509 8.38092L19.8109 7.00978L21.1821 6.56979L21.6221 7.94092L20.2509 8.38092ZM21.0332 10.8185L22.4043 10.3785L22.8443 11.7496L21.4732 12.1896L21.0332 10.8185ZM22.2554 14.6272L23.6265 14.1872L24.0665 15.5583L22.6954 15.9983L22.2554 14.6272ZM23.4776 18.4359L24.8487 17.9959L25.2887 19.367L23.9176 19.807L23.4776 18.4359ZM20.6489 17.9993L21.48 20.5892L14.3958 22.8625L13.5647 20.2726L12.7336 17.6827L19.8178 15.4094L20.6489 17.9993ZM11.5183 22.2736L11.9583 23.6448L10.5871 24.0848L10.1471 22.7136L11.5183 22.2736ZM10.736 19.8361L9.36491 20.2761L8.92492 18.9049L10.296 18.4649L10.736 19.8361Z" fill="#FACC15"/>
</svg>
