<svg width="53" height="53" viewBox="0 0 53 53" fill="none" xmlns="http://www.w3.org/2000/svg">
<path d="M26.3542 18.3979C24.0648 16.3442 21.0965 15.2103 18.0209 15.2146C16.5598 15.2146 15.157 15.4646 13.8542 15.9257V35.7174C15.1926 35.2452 16.6017 35.0047 18.0209 35.0062C21.2223 35.0062 24.1431 36.2104 26.3542 38.1896M26.3542 18.3979C28.6436 16.3441 31.612 15.2102 34.6876 15.2146C36.1487 15.2146 37.5515 15.4646 38.8542 15.9257V35.7174C37.5159 35.2452 36.1068 35.0047 34.6876 35.0062C31.612 35.002 28.6437 36.1359 26.3542 38.1896M26.3542 18.3979V38.1896M51.3542 26.7021C51.3542 40.5092 40.1614 51.7021 26.3542 51.7021C12.5471 51.7021 1.35425 40.5092 1.35425 26.7021C1.35425 12.895 12.5471 1.70209 26.3542 1.70209C40.1614 1.70209 51.3542 12.895 51.3542 26.7021Z" stroke="#FACC15" stroke-width="2.5" stroke-linecap="round" stroke-linejoin="round"/>
</svg>
