<svg width="51" height="51" viewBox="0 0 51 51" fill="none" xmlns="http://www.w3.org/2000/svg">
<path fill-rule="evenodd" clip-rule="evenodd" d="M25.6968 50.0313C39.5039 50.0313 50.6968 38.8385 50.6968 25.0313C50.6968 11.2242 39.5039 0.0313416 25.6968 0.0313416C11.8897 0.0313416 0.696777 11.2242 0.696777 25.0313C0.696777 38.8385 11.8897 50.0313 25.6968 50.0313ZM19.8949 12.5627C20.7153 11.7423 21.8281 11.2813 22.9884 11.2813C24.1488 11.2813 25.2616 11.7423 26.082 12.5627C26.9025 13.3832 27.3634 14.496 27.3634 15.6563C27.3634 16.2309 27.2503 16.7998 27.0304 17.3306C26.8106 17.8614 26.4883 18.3437 26.082 18.7499C25.6758 19.1562 25.1935 19.4785 24.6627 19.6983C24.1319 19.9182 23.563 20.0313 22.9884 20.0313C22.4139 20.0313 21.845 19.9182 21.3142 19.6983C20.7834 19.4785 20.3011 19.1562 19.8949 18.7499C19.4886 18.3437 19.1663 17.8614 18.9465 17.3306C18.7266 16.7998 18.6134 16.2309 18.6134 15.6563C18.6134 14.496 19.0744 13.3832 19.8949 12.5627ZM22.9884 8.78134C21.1651 8.78134 19.4164 9.50567 18.1271 10.795C16.8378 12.0843 16.1134 13.833 16.1134 15.6563C16.1134 16.5592 16.2913 17.4532 16.6368 18.2873C16.9823 19.1214 17.4887 19.8793 18.1271 20.5177C18.7655 21.1561 19.5234 21.6625 20.3575 22.008C21.1916 22.3535 22.0856 22.5313 22.9884 22.5313C23.8913 22.5313 24.7853 22.3535 25.6194 22.008C26.4535 21.6625 27.2114 21.1561 27.8498 20.5177C28.4882 19.8793 28.9946 19.1214 29.3401 18.2873C29.6856 17.4532 29.8634 16.5592 29.8634 15.6563C29.8634 13.833 29.1391 12.0843 27.8498 10.795C26.5605 9.50567 24.8118 8.78134 22.9884 8.78134ZM38.6134 17.5313C38.6134 16.841 38.0538 16.2813 37.3634 16.2813C36.6731 16.2813 36.1134 16.841 36.1134 17.5313V21.2813H32.3634C31.6731 21.2813 31.1134 21.841 31.1134 22.5313C31.1134 23.2217 31.6731 23.7813 32.3634 23.7813H36.1134V27.5313C36.1134 28.2217 36.6731 28.7813 37.3634 28.7813C38.0538 28.7813 38.6134 28.2217 38.6134 27.5313V23.7813H42.3634C43.0538 23.7813 43.6134 23.2217 43.6134 22.5313C43.6134 21.841 43.0538 21.2813 42.3634 21.2813H38.6134V17.5313ZM16.3593 30.2772C18.1175 28.5191 20.502 27.5313 22.9884 27.5313C25.4748 27.5313 27.8594 28.5191 29.6176 30.2772C31.2501 31.9098 32.2184 34.0824 32.3484 36.3752C29.4869 37.9569 26.2663 38.7869 22.9889 38.7813H22.9868C19.5914 38.7813 16.4023 37.9083 13.6285 36.3751C13.7585 34.0824 14.7268 31.9097 16.3593 30.2772ZM11.1134 37.0897C11.1134 37.568 11.3821 37.9835 11.7767 38.1937L22.9857 41.2813C26.9577 41.2878 30.8558 40.2081 34.2584 38.1588C34.6338 37.9326 34.8634 37.5263 34.8634 37.088V36.9063C34.8634 33.7569 33.6123 30.7364 31.3853 28.5094C29.1583 26.2825 26.1379 25.0313 22.9884 25.0313C19.839 25.0313 16.8185 26.2825 14.5916 28.5094C12.3646 30.7364 11.1134 33.7569 11.1134 36.9063V37.088V37.0897Z" fill="#F9C31A"/>
</svg>
