<svg width="51" height="50" viewBox="0 0 51 50" fill="none" xmlns="http://www.w3.org/2000/svg">
<g clip-path="url(#clip0_324_10)">
<path d="M24.5738 4.04221C24.6795 3.78442 24.8595 3.56389 25.0908 3.40868C25.3222 3.25347 25.5945 3.17059 25.8731 3.17059C26.1518 3.17059 26.4241 3.25347 26.6554 3.40868C26.8868 3.56389 27.0668 3.78442 27.1725 4.04221L32.4822 16.8131C32.5816 17.0521 32.745 17.259 32.9544 17.4111C33.1638 17.5632 33.4111 17.6546 33.6691 17.6752L47.4571 18.7796C48.7039 18.8796 49.2087 20.4363 48.2591 21.2484L37.7545 30.2487C37.5583 30.4166 37.412 30.6353 37.3318 30.8808C37.2516 31.1263 37.2405 31.3891 37.2998 31.6405L40.5106 45.0961C40.5752 45.3661 40.5582 45.6491 40.462 45.9094C40.3658 46.1698 40.1946 46.3958 39.97 46.5589C39.7454 46.722 39.4775 46.8149 39.2002 46.8258C38.9228 46.8367 38.6484 46.7652 38.4117 46.6203L26.6053 39.4115C26.3847 39.2771 26.1314 39.206 25.8731 39.206C25.6149 39.206 25.3616 39.2771 25.141 39.4115L13.3346 46.6228C13.0979 46.7677 12.8235 46.8392 12.5461 46.8283C12.2688 46.8174 12.0009 46.7245 11.7763 46.5614C11.5517 46.3983 11.3805 46.1723 11.2843 45.9119C11.188 45.6516 11.1711 45.3686 11.2357 45.0986L14.4465 31.6405C14.5061 31.3891 14.4951 31.1262 14.4149 30.8807C14.3346 30.6351 14.1882 30.4165 13.9918 30.2487L3.48715 21.2484C3.27679 21.0675 3.12461 20.8284 3.04974 20.5613C2.97488 20.2942 2.98068 20.0109 3.0664 19.747C3.15213 19.4831 3.31396 19.2505 3.53154 19.0784C3.74912 18.9063 4.01273 18.8023 4.28924 18.7796L18.0772 17.6752C18.3351 17.6546 18.5824 17.5632 18.7919 17.4111C19.0013 17.259 19.1646 17.0521 19.264 16.8131L24.5738 4.04221Z" stroke="#FACC15" stroke-width="3.5" stroke-linecap="round" stroke-linejoin="round"/>
</g>
<defs>
<clipPath id="clip0_324_10">
<rect width="50" height="50" fill="white" transform="translate(0.875)"/>
</clipPath>
</defs>
</svg>
