<svg width="17" height="17" viewBox="0 0 17 17" fill="none" xmlns="http://www.w3.org/2000/svg">
<path d="M13.2398 14.3438C12.6575 13.5728 11.9042 12.9476 11.0391 12.5174C10.1741 12.0872 9.22094 11.8637 8.25481 11.8646C7.28868 11.8637 6.33555 12.0872 5.47049 12.5174C4.60544 12.9476 3.8521 13.5728 3.26981 14.3438M13.2398 14.3438C14.3761 13.3331 15.1774 12.0009 15.5391 10.5239C15.9009 9.04681 15.805 7.49469 15.2644 6.07335C14.7237 4.65201 13.7637 3.4286 12.5118 2.56537C11.2599 1.70214 9.77509 1.23987 8.25439 1.23987C6.7337 1.23987 5.24892 1.70214 3.99698 2.56537C2.74504 3.4286 1.78509 4.65201 1.24442 6.07335C0.703762 7.49469 0.607939 9.04681 0.969661 10.5239C1.33138 12.0009 2.13356 13.3331 3.26981 14.3438M13.2398 14.3438C11.8682 15.5673 10.0928 16.2422 8.25481 16.2396C6.4165 16.2424 4.64167 15.5675 3.26981 14.3438M10.7548 6.86462C10.7548 7.52766 10.4914 8.16355 10.0226 8.63239C9.55374 9.10123 8.91785 9.36462 8.25481 9.36462C7.59177 9.36462 6.95589 9.10123 6.48704 8.63239C6.0182 8.16355 5.75481 7.52766 5.75481 6.86462C5.75481 6.20158 6.0182 5.5657 6.48704 5.09685C6.95589 4.62801 7.59177 4.36462 8.25481 4.36462C8.91785 4.36462 9.55374 4.62801 10.0226 5.09685C10.4914 5.5657 10.7548 6.20158 10.7548 6.86462Z" stroke="#D61A1F" stroke-width="1.5" stroke-linecap="round" stroke-linejoin="round"/>
</svg>
